<svg width="256" height="256" viewBox="0 0 256 256" fill="none" xmlns="http://www.w3.org/2000/svg">
<g clip-path="url(#clip0_2081_42274)">
<path fill-rule="evenodd" clip-rule="evenodd" d="M248.472 217.431C246.923 218.29 245.227 218.698 243.53 218.698C241.499 218.698 239.479 218.096 237.72 216.905L191.182 185.186V197.294C191.182 209.101 181.791 218.698 170.243 218.698H23.6671C12.1191 218.698 2.72778 209.101 2.72778 197.294V58.1605C2.72778 46.3638 12.1191 36.757 23.6671 36.757H170.243C181.791 36.757 191.182 46.3638 191.182 58.1605V70.2791L237.72 38.5603C240.924 36.3705 245.07 36.1559 248.472 38.0236C251.875 39.8913 254 43.5194 254 47.4587V207.996C254 211.946 251.875 215.563 248.472 217.431ZM233.061 67.4668L186.523 99.1749C186.251 99.3574 185.937 99.3789 185.654 99.5399C185.026 99.8941 184.377 100.152 183.665 100.366C182.995 100.57 182.356 100.71 181.676 100.774C181.341 100.806 181.047 100.978 180.712 100.978C180.356 100.978 180.053 100.806 179.697 100.764C178.995 100.699 178.346 100.56 177.676 100.345C177.017 100.141 176.409 99.8941 175.823 99.5721C175.247 99.2608 174.734 98.8958 174.221 98.4772C173.656 98.0049 173.164 97.5004 172.703 96.9208C172.494 96.6524 172.19 96.5022 172.002 96.2123C171.824 95.9333 171.792 95.6005 171.646 95.3107C171.3 94.6774 171.059 94.0333 170.85 93.3249C170.641 92.6165 170.494 91.9402 170.431 91.2318C170.4 90.899 170.243 90.6092 170.243 90.2765V58.1605H23.6671V197.702H170.243V165.189C170.243 164.856 170.4 164.566 170.431 164.233C170.494 163.514 170.641 162.838 170.85 162.14C171.059 161.432 171.3 160.788 171.646 160.144C171.792 159.854 171.824 159.532 172.002 159.253C172.19 158.963 172.494 158.802 172.714 158.534C173.164 157.965 173.645 157.471 174.211 156.999C174.734 156.569 175.258 156.194 175.854 155.872C176.42 155.56 176.996 155.324 177.624 155.12C178.325 154.895 179.016 154.755 179.749 154.691C180.084 154.648 180.367 154.487 180.712 154.487C181.037 154.487 181.309 154.648 181.623 154.68C182.335 154.745 183.005 154.884 183.696 155.099C184.387 155.314 185.026 155.571 185.644 155.925C185.926 156.076 186.251 156.097 186.523 156.29L233.061 187.998V67.4668Z" fill="url(#paint0_linear_2081_42274)"/>
</g>
<defs>
<linearGradient id="paint0_linear_2081_42274" x1="2.72778" y1="36.757" x2="234.44" y2="240.899" gradientUnits="userSpaceOnUse">
<stop stop-color="#4C54D2"/>
<stop offset="0.5625" stop-color="#BF14A2"/>
<stop offset="1" stop-color="#F73A1C"/>
</linearGradient>
<clipPath id="clip0_2081_42274">
<rect width="256" height="256" fill="white"/>
</clipPath>
</defs>
</svg>
