<svg width="267" height="189" viewBox="0 0 267 189" fill="none" xmlns="http://www.w3.org/2000/svg">
<path fill-rule="evenodd" clip-rule="evenodd" d="M260.946 187.565C259.304 188.456 257.507 188.878 255.71 188.878C253.558 188.878 251.417 188.255 249.553 187.02L200.246 154.144V166.694C200.246 178.932 190.295 188.878 178.06 188.878H22.7606C10.5252 188.878 0.574951 178.932 0.574951 166.694V22.4847C0.574951 10.2578 10.5252 0.300415 22.7606 0.300415H178.06C190.295 0.300415 200.246 10.2578 200.246 22.4847V35.0455L249.553 2.16951C252.948 -0.100104 257.34 -0.322615 260.946 1.61323C264.551 3.54907 266.803 7.3095 266.803 11.3926V177.786C266.803 181.88 264.551 185.63 260.946 187.565ZM244.617 32.1305L195.31 64.9953C195.021 65.1845 194.688 65.2067 194.389 65.3736C193.723 65.7407 193.035 66.0078 192.281 66.2303C191.571 66.4416 190.895 66.5863 190.174 66.653C189.819 66.6864 189.508 66.8644 189.153 66.8644C188.776 66.8644 188.454 66.6864 188.077 66.6419C187.334 66.5752 186.646 66.4305 185.936 66.208C185.237 65.9966 184.594 65.7407 183.973 65.407C183.363 65.0843 182.819 64.7061 182.275 64.2722C181.676 63.7826 181.155 63.2597 180.667 62.659C180.445 62.3808 180.123 62.2251 179.924 61.9247C179.735 61.6354 179.702 61.2905 179.547 60.9901C179.181 60.3337 178.925 59.6662 178.704 58.9319C178.482 58.1976 178.326 57.4967 178.26 56.7624C178.227 56.4175 178.06 56.1171 178.06 55.7723V22.4846H22.7607V167.117H178.06V133.417C178.06 133.073 178.227 132.772 178.26 132.427C178.326 131.682 178.482 130.981 178.704 130.258C178.925 129.523 179.181 128.856 179.547 128.188C179.702 127.888 179.735 127.554 179.924 127.265C180.123 126.965 180.445 126.798 180.678 126.52C181.155 125.93 181.665 125.418 182.264 124.929C182.819 124.484 183.374 124.094 184.006 123.76C184.605 123.438 185.215 123.193 185.881 122.982C186.624 122.748 187.356 122.603 188.132 122.537C188.487 122.492 188.787 122.325 189.153 122.325C189.497 122.325 189.785 122.492 190.118 122.526C190.872 122.592 191.582 122.737 192.314 122.959C193.047 123.182 193.723 123.449 194.378 123.816C194.677 123.972 195.021 123.994 195.31 124.194L244.617 157.059V32.1305Z" fill="#DADCE8"/>
</svg>
