<?xml version="1.0" encoding="UTF-8"?>
<svg width="17px" height="26px" viewBox="0 0 17 26" version="1.1" xmlns="http://www.w3.org/2000/svg" xmlns:xlink="http://www.w3.org/1999/xlink">
    <!-- Generator: Sketch 47.1 (45422) - http://www.bohemiancoding.com/sketch -->
    <title>logo</title>
    <desc>Created with Sketch.</desc>
    <defs></defs>
    <g id="Page-1" stroke="none" stroke-width="1" fill="none" fill-rule="evenodd">
        <g id="ic_videocam_black_24px" fill-rule="nonzero" fill="#767676">
            <g id="logo" transform="translate(0.375000, 0.458333)">
                <g id="Group" transform="translate(1.766562, 3.028391)">
                    <g id="Shape">
                        <path d="M4.44948896,11.0298297 C5.14460568,11.0298297 6.61244164,10.6148139 7.58334385,10.3400631 C7.72454259,10.3003155 7.85615142,10.2631167 7.97574763,10.2297539 C7.9951041,10.224429 8.01385489,10.2195836 8.03159621,10.215142 C7.97705994,10.1611609 7.88635962,10.0791924 7.7385489,9.95533123 C7.09178549,9.51699685 6.48108517,9.31290852 5.81688328,9.31290852 C5.672,9.31290852 5.52143849,9.3217918 5.35737539,9.34036593 C4.79502839,9.40434069 4.32651104,9.538347 4.10142587,9.60257413 C3.98733123,9.63528076 3.95295899,9.64504732 3.91740063,9.64504732 C3.84956467,9.64504732 3.79129338,9.60469401 3.76850473,9.54235962 C3.74569085,9.47969716 3.76522397,9.4105489 3.81819558,9.36618297 L3.82140063,9.36360883 C4.2095142,9.0384858 4.9326183,8.43323659 6.30442902,8.16280126 C6.54235962,8.11603785 6.7968959,8.09223975 7.06071924,8.09223975 C7.6748265,8.09223975 8.3106877,8.21907886 8.95015773,8.4688959 C9.82109779,8.80893375 10.4162524,9.2454511 10.8949401,9.59621451 C11.1526309,9.78521136 11.3751924,9.94849211 11.5688833,10.0382587 C11.6183722,10.0612744 11.6440631,10.0677603 11.6560252,10.0694511 C11.6648328,10.0580442 11.6839369,10.0265489 11.7120252,9.94392429 C11.7195457,9.92204416 11.7739306,9.69107886 11.3837729,8.37746372 C11.1570221,7.61488959 10.8835331,6.83608833 10.741123,6.49032177 C10.4656404,5.82132492 10.5332492,5.34720505 10.6180442,5.06990536 C10.3846562,5.15568454 10.1460946,5.28916088 9.89511672,5.4735142 L9.87947003,5.48507256 C9.7540694,5.57804416 9.62632177,5.68325552 9.4887571,5.8062082 C8.67931861,6.53095268 8.07288328,6.90879495 7.68547634,6.92933754 L7.67480126,6.92986751 L7.66417666,6.92895899 C7.32287697,6.89998738 6.805653,6.40317981 6.5940694,6.15164669 C6.55008202,6.12214511 6.49996215,6.10876972 6.43381703,6.10876972 C6.36739432,6.10876972 6.29292114,6.12272555 6.22087066,6.13640379 C6.16845426,6.146347 6.11442271,6.15646688 6.06084543,6.16189274 C5.8900694,6.17902839 5.65070032,6.23424606 5.41968454,6.28741956 C5.30831546,6.31300946 5.19338801,6.33948265 5.08832808,6.36116088 C5.08633438,6.36148896 5.04123659,6.37080126 4.96063091,6.39205047 C4.38967823,6.56095899 3.95941956,6.75475079 3.74897161,6.93786751 C3.74667508,6.9398612 3.73988644,6.94513565 3.72905994,6.95308517 C3.58672555,7.05425868 3.24454259,7.34291483 3.14129968,7.83401893 L3.14021451,7.83810726 C2.92466877,8.74251104 3.25145741,9.86410095 3.68570347,10.5047571 C3.88994322,10.8058801 4.11003155,10.9937413 4.28996845,11.0200883 C4.33476341,11.0264479 4.38851735,11.0298297 4.44948896,11.0298297 Z"></path>
                        <path d="M7.63984858,6.2333123 C7.65370347,6.23603785 7.66990536,6.23740063 7.68779811,6.23740063 C8.06092114,6.23740063 8.8942082,5.69713565 9.04835331,5.44989274 L9.0606183,5.4302082 L9.07813249,5.41478864 C9.13070032,5.36290221 9.28252366,5.08961514 9.35621451,4.92603155 C8.56600631,4.68895899 8.47881388,4.26112303 8.40174132,3.88098423 C8.39278233,3.83684543 8.38490852,3.79709779 8.37786751,3.76156467 C8.36885804,3.71507886 8.35941956,3.6678612 8.35131861,3.63136909 C7.17413249,4.02180442 6.81428391,4.24093375 6.61789274,4.40388644 C6.51626498,4.48830284 6.45642902,4.72837855 6.74950158,5.39288328 C6.89920505,5.73160883 7.41539432,6.19013249 7.63984858,6.2333123 Z"></path>
                        <path d="M1.48297792,14.2085804 C1.33663091,14.0361136 1.27457413,13.8187508 1.29892744,13.561918 C1.40252366,12.315306 1.26044164,12.0141577 1.19464984,11.9426877 C1.17877603,11.9254006 1.17019558,11.9254006 1.16340694,11.9254006 C1.16085804,11.9254006 1.1584858,11.9255521 1.15593691,11.9258044 C1.0337918,11.9550032 0.211053628,12.5112429 0.0294258675,14.1719874 C-0.058170347,14.9734511 0.095318612,16.0027003 0.226119874,16.6287192 C0.331230284,16.2591041 0.497211356,15.8519621 0.818750789,15.4329085 C1.11810726,15.0431546 1.44464353,14.7357981 1.84971609,14.4663975 C1.72378549,14.4140315 1.5886183,14.3332997 1.48297792,14.2085804 Z"></path>
                        <path d="M10.1962902,0.00355835962 C10.0979685,0.652164038 9.93789274,1.26829022 9.63914196,1.91858675 C9.96479495,1.54990536 10.1551041,1.14935016 10.2188517,0.699760252 C10.2453754,0.513514196 10.2704606,0.335369085 10.1962902,0.00355835962 Z"></path>
                        <path d="M8.38112303,3.02326814 C8.96497161,2.49544479 9.32042902,1.62377287 9.46826498,1.10601893 C8.95977287,1.59578549 8.34180442,1.85857413 7.94521136,2.02745741 C7.80863091,2.08570347 7.6908265,2.13584858 7.62021451,2.17700946 C7.5904858,2.19429653 7.5604795,2.21168454 7.53009464,2.22922397 C7.2895142,2.36840379 6.92633438,2.57875079 6.87338801,2.70839117 L6.87187382,2.71260568 L6.86990536,2.71676972 C6.70513565,3.06301577 6.61229022,3.58369716 6.58253628,3.88229653 C6.96449211,3.64905994 7.35825868,3.49340063 7.68535016,3.36421451 C7.98894637,3.24426498 8.25145741,3.14054259 8.38112303,3.02326814 Z"></path>
                        <path d="M8.9700694,3.47954574 C8.96651104,3.48855521 8.96270032,3.49708517 8.95858675,3.50521136 C8.86185489,3.78642271 8.99507886,4.16893375 9.24191798,4.31321136 C9.3075836,4.35162145 9.37143218,4.37509148 9.43268139,4.38316719 C9.44111041,4.3835205 9.44948896,4.38384858 9.45794322,4.38384858 C9.64976656,4.38384858 9.80623344,4.24353312 9.92229653,3.9669653 C9.9953817,3.75649211 10.0057792,3.50690221 9.9506877,3.28158991 C9.90788644,3.1065489 9.79714826,2.89761514 9.72658675,2.79343849 C9.59487697,2.88383596 9.33458675,3.08270032 9.1558612,3.24052997 C9.03104101,3.36108517 8.98594322,3.43699685 8.9700694,3.47954574 Z"></path>
                        <path d="M10.620694,10.627205 C10.8327571,10.5694132 11.0011609,10.5220946 11.1253754,10.4852997 C10.8695521,10.3071041 10.5734259,10.0854006 10.1708517,9.77229022 C9.18420189,9.00499685 8.1262082,8.61579811 7.02670032,8.61579811 C6.42452997,8.61579811 5.89996215,8.73168454 5.48479495,8.87197476 C5.58829022,8.86553943 5.69352681,8.86246057 5.80161514,8.86246057 C5.93001893,8.86246057 6.06458044,8.86697792 6.20141325,8.87611356 C6.62914826,8.90478233 7.73115457,9.09933123 8.72774763,10.2876215 C8.92852997,10.5265868 9.14432808,10.7243912 9.75810726,10.7243912 C9.97713565,10.7243912 10.2324543,10.6999874 10.5382461,10.6497161 C10.5571483,10.6444416 10.5857413,10.6366435 10.620694,10.627205 Z"></path>
                        <path d="M12.0193817,5.44981703 C11.8236719,5.14589274 11.5777918,4.95709779 11.3781199,4.95709779 C11.3411735,4.95709779 11.3058927,4.96360883 11.2732871,4.97640379 C11.1663091,5.01859937 10.9968959,5.50743218 11.0719243,5.86286435 C11.1229779,6.10468139 11.4169085,6.9217918 11.5580315,7.31447319 C11.6120883,7.46483281 11.6382839,7.53829653 11.647041,7.56560252 C11.6539811,7.58712934 11.6639495,7.61801893 11.6765678,7.65698423 C11.7905615,8.00436593 12.0831546,8.89723659 12.1702461,9.62021451 C12.3513186,8.84913565 12.4538801,7.9202776 12.4137035,6.80863091 C12.3954574,6.29887697 12.2553691,5.81625237 12.0193817,5.44981703 Z"></path>
                        <path d="M8.35533123,10.6318991 C8.35147003,10.6268517 8.34776025,10.6218801 8.34410095,10.6171356 C8.32860568,10.6196593 8.30331861,10.6251861 8.2637224,10.6367192 L8.24714196,10.6416909 C8.04497161,10.7161388 7.67409464,10.8412618 7.24540063,10.985918 C6.73090221,11.1592934 6.14818927,11.3558612 5.66034069,11.5309022 C5.03962145,11.7621956 4.83833438,11.8534511 4.77521767,11.8854259 C4.76376025,11.916164 4.75091483,11.9553817 4.73660568,11.9986372 C4.58980442,12.4454511 4.25360252,13.468164 2.59576025,14.1831672 C2.93817035,14.5300189 3.68348265,15.1526309 5.15071293,15.1526309 C5.27777918,15.1526309 5.40958991,15.1478864 5.54172871,15.138347 C6.6495142,15.0595836 7.6908265,14.5694132 8.47437224,13.7585868 C9.18687697,13.0214259 9.59131861,12.1020315 9.59757729,11.2157476 C9.42417666,11.2013375 9.13022082,11.158183 8.85811987,11.0289968 C8.8549653,11.0274574 8.544,10.8775268 8.35533123,10.6318991 Z"></path>
                        <path d="M2.04678864,12.2424984 C2.04370978,12.5032934 2.00921136,12.7534132 1.97562145,12.9972492 C1.95755205,13.1288833 1.93867508,13.2651356 1.92479495,13.4020694 C1.90596845,13.6775016 1.96547634,13.7734763 1.99189905,13.8015394 C2.00630915,13.8174132 2.03008202,13.8355079 2.08113565,13.8355079 C2.12045426,13.8355079 2.16739432,13.8246057 2.21698423,13.8039369 C2.70927445,13.5976025 3.17678233,13.23947 3.4015142,13.0407066 C3.05658044,12.8868896 2.52608202,12.5546498 2.04678864,12.2424984 Z"></path>
                        <path d="M10.1769085,11.2107003 C10.1629779,11.3938675 10.1330726,11.7393817 10.0852744,12.0025741 C10.0273565,12.3212871 9.93145741,12.5908391 9.87568454,12.7316341 C9.9752429,12.8236972 10.0744984,12.9140442 10.138877,12.9710789 C10.3979306,12.8015394 11.2483028,12.1560126 11.8349779,10.6904984 C11.647041,10.8174385 11.3830915,10.9291356 11.0409085,11.0269527 C10.6927192,11.1261073 10.3543722,11.1841514 10.1769085,11.2107003 Z"></path>
                    </g>
                </g>
                <g id="Group">
                    <path d="M15.5599243,7.9878612 C15.2050473,7.24603155 14.7102334,6.87149527 14.3684795,6.65430915 C14.0811356,6.47177287 13.7507129,6.33912934 13.3839495,6.25867508 C13.3430158,6.00232177 13.2729842,5.74026498 13.1770599,5.48527445 C13.7955331,4.56335647 13.944429,3.52678864 13.6062839,2.47674448 C13.3465741,1.66942587 13.1449338,1.14887066 12.9715079,0.838182965 C12.5968454,0.166182965 12.0777287,0.0251608833 11.708164,0.0251608833 C11.3273438,0.0251608833 10.9627256,0.186977918 10.7071041,0.469577287 C10.4454006,0.758839117 10.3231798,1.13738801 10.3630284,1.53526814 C10.3970726,1.87459937 10.3080631,2.49102839 10.2489842,2.71114196 C10.2479748,2.71409464 10.1429401,3.00832808 9.36146372,3.38707886 C9.34263722,3.39384227 9.30261199,3.40754574 9.24100946,3.42818927 C8.79149527,3.57872555 7.9561388,3.85877603 7.39967192,4.59459937 C6.97451104,5.10960252 6.87008202,5.61993691 6.74942587,6.21064984 C6.67729968,6.5628265 6.60189274,7.02294006 6.62059306,7.56699054 C5.22374763,7.8771735 4.21741325,8.50927445 3.62730599,9.44812618 C3.01650473,10.4202397 2.91053628,11.6253375 3.31265615,13.0315457 L3.31618927,13.0419937 C3.32355836,13.0675836 3.33133123,13.0930726 3.33943218,13.1184606 C3.27083912,13.1067003 3.2015142,13.0968076 3.130347,13.088959 C3.06803785,13.0817918 3.00378549,13.0783596 2.94006309,13.0783596 C2.24262461,13.0783596 1.50049211,13.5167445 0.954801262,14.251205 C0.540239748,14.8088833 0.0423470032,15.7939432 0.0247823344,17.3197981 C0.0115835962,18.4530473 0.132769716,19.4978675 0.385236593,20.4252618 C0.573526814,21.116265 0.783570978,21.5407697 0.864201893,21.6893628 L2.57506625,24.8964038 L3.35891483,21.3448328 C3.62642271,20.1351167 3.8905489,19.6216025 4.23136909,19.2821956 C5.02442902,19.7601262 5.96111041,20.0115584 6.95543218,20.0115584 C8.06379811,20.0115584 9.21953312,19.6918864 10.2092871,19.111571 C10.8522397,18.734183 11.4002776,18.2705868 11.8403028,17.7321893 C11.8462587,17.7321893 11.8521388,17.7321893 11.8580694,17.7321893 L11.9049338,17.7312303 C12.1770347,17.7220189 12.5490221,17.5874574 12.9253502,17.3620189 C13.2388139,17.1744353 13.7113943,16.8293249 14.185817,16.2499937 C14.6639243,15.6656404 15.0540063,14.9547508 15.3448328,14.1369085 C15.6855268,13.1794574 15.8928959,12.0646057 15.9607066,10.8240505 C16.0428013,9.67015773 15.908265,8.71596215 15.5599243,7.9878612 Z M14.7744606,10.7494259 C14.7135142,11.8801514 14.52853,12.8859558 14.2252114,13.7384732 C13.9800883,14.4274826 13.6573375,15.0189527 13.2660946,15.4972114 C12.5923785,16.3202019 11.9340315,16.5408707 11.8641767,16.5436467 L11.8586246,16.5436467 C11.7948265,16.5436467 11.7573754,16.5176025 11.5786246,16.39253 C11.5286814,16.3577287 11.453224,16.3050347 11.3909653,16.2644543 C11.0171356,16.9915457 10.4030789,17.6196845 9.60777287,18.0861577 C8.79772871,18.5612114 7.85554574,18.8231167 6.95540694,18.8231167 C5.88658675,18.8231167 4.94829022,18.4703344 4.23384227,17.8012114 C3.25917981,18.4209211 2.67338801,18.9379685 2.19846057,21.088858 L2.10856782,21.4966057 L1.91205047,21.1284038 C1.86246057,21.0377539 1.69231546,20.702082 1.53206309,20.1131104 C1.30856782,19.2919621 1.20121136,18.356694 1.21314826,17.3335521 C1.23697161,15.2916845 2.33297161,14.2668517 2.94001262,14.2668517 C2.96,14.2668517 2.97983596,14.267836 2.99876341,14.270082 C3.57415773,14.3344606 3.95015773,14.5830662 4.63270662,15.0345237 C4.70326814,15.0812871 4.77756467,15.1304227 4.85587382,15.1818549 C5.1004164,15.3423596 5.44608202,15.5383218 5.53309779,15.5551293 C5.69870032,15.5455142 5.86082019,15.1745868 5.90793691,14.830511 C5.91081388,14.8095899 5.91364038,14.790183 5.91636593,14.7720883 C5.92007571,14.7314069 5.92209464,14.6956215 5.92317981,14.6662461 C5.89430915,14.6561767 5.86430284,14.6443155 5.83366562,14.6308391 L5.82685174,14.6285426 C5.39752681,14.4807319 4.77024606,13.7547256 4.45453628,12.7008454 C4.149653,11.6356088 4.20996845,10.7545489 4.63369085,10.08053 C5.32065615,8.98707886 6.81178549,8.72999369 7.30495899,8.64555205 C7.45912934,8.61491483 7.62036593,8.58622082 7.78442902,8.56030284 C7.86102208,8.54107256 7.91338801,8.52499685 7.94717981,8.51038486 C7.96181703,8.50021451 7.96825237,8.48936278 7.95825868,8.44974132 L7.97163407,8.44600631 L7.9586877,8.44890852 C7.95270662,8.42203155 7.94442902,8.39058675 7.93494006,8.35419558 C7.9217918,8.30379811 7.9071041,8.24678864 7.89191167,8.17915457 C7.73923028,7.4942082 7.81716088,6.92025237 7.91369085,6.44895899 C8.02213249,5.91851104 8.08222082,5.62483281 8.33274448,5.33150789 C8.66465615,4.87464984 9.26152681,4.67472555 9.61862461,4.55497792 C9.71825868,4.52161514 9.80434069,4.49284543 9.85410726,4.46887066 C10.9479621,3.94422713 11.2962524,3.39263091 11.395836,3.02235962 C11.4747508,2.72855521 11.5998486,1.95603785 11.5455142,1.41655521 C11.5394826,1.35535647 11.5537413,1.30498423 11.5882902,1.26677603 C11.6189527,1.23293375 11.6625363,1.21367823 11.7081136,1.21367823 C11.8105994,1.21367823 11.9509653,1.21367823 12.4747256,2.84088328 C12.751041,3.6988265 12.5450095,4.50316719 11.8628896,5.23179811 C11.8541325,5.24126183 11.845224,5.25052366 11.8366435,5.25943218 C11.8180189,5.27861199 11.7900063,5.30760883 11.7861956,5.31813249 C11.786347,5.31813249 11.7849842,5.34442902 11.8304858,5.4198612 C12.1188139,5.89592429 12.2754826,6.48794953 12.2300315,6.92807571 C12.219205,7.03058675 12.1995962,7.12923659 12.182612,7.21605047 C12.1725174,7.26571609 12.160429,7.32651104 12.1541956,7.37355205 C12.1569968,7.37355205 12.1598991,7.37355205 12.1629527,7.37355205 C12.2408833,7.36529968 12.361489,7.35588644 12.506877,7.35588644 C12.8489842,7.35588644 13.3389022,7.40830284 13.7309274,7.65748896 C13.9676972,7.80769716 14.2673312,8.03949527 14.4875457,8.50049211 C14.7470032,9.04237224 14.8432808,9.79899054 14.7744606,10.7494259 Z" id="Shape"></path>
                </g>
            </g>
        </g>
    </g>
</svg>