<?xml version="1.0" encoding="UTF-8"?>
<svg width="14px" height="22px" viewBox="0 0 14 22" version="1.1" xmlns="http://www.w3.org/2000/svg" xmlns:xlink="http://www.w3.org/1999/xlink">
    <!-- Generator: Sketch 47.1 (45422) - http://www.bohemiancoding.com/sketch -->
    <title>jitsi-icon-grey</title>
    <desc>Created with Sketch.</desc>
    <defs></defs>
    <g id="Page-1" stroke="none" stroke-width="1" fill="none" fill-rule="evenodd">
        <g id="jitsi-icon-grey" fill-rule="nonzero" fill="#0078D7">
            <g id="Group" transform="translate(1.812091, 2.950305)">
                <g id="Shape">
                    <path d="M3.7649522,9.33293282 C4.35312788,9.33293282 5.59514293,8.98176561 6.41667557,8.74928416 C6.53615142,8.71565158 6.64751274,8.68417567 6.74870953,8.65594561 C6.76508808,8.65143992 6.78095414,8.64733997 6.79596602,8.64358169 C6.74981995,8.59790538 6.67307352,8.52854742 6.54800292,8.42374181 C6.00074157,8.05284349 5.48399514,7.88015336 4.92197816,7.88015336 C4.79938462,7.88015336 4.67198641,7.88766998 4.53316379,7.90338656 C4.05733171,7.95751905 3.66089396,8.070909 3.47043727,8.12525503 C3.37389566,8.15292987 3.34481145,8.16119389 3.31472361,8.16119389 C3.25732395,8.16119389 3.20801748,8.12704878 3.18873477,8.07430429 C3.16943072,8.02128221 3.18595874,7.96277215 3.23078088,7.92523174 L3.23349284,7.92305363 C3.56189663,7.64794952 4.17375395,7.13581558 5.33451686,6.90698568 C5.53584276,6.86741664 5.75121961,6.84727979 5.97445474,6.84727979 C6.49408396,6.84727979 7.03212036,6.95460519 7.57321039,7.16598884 C8.31015967,7.45371317 8.81375203,7.82307401 9.21879547,8.11987382 C9.43684153,8.27979423 9.6251628,8.41795486 9.7890551,8.49391121 C9.83093032,8.51338603 9.85266878,8.5188741 9.86279055,8.52030478 C9.87024314,8.51065278 9.88640815,8.48400292 9.91017517,8.41408978 C9.91653867,8.39557583 9.96255666,8.20014365 9.63242322,7.08862315 C9.44055716,6.44336811 9.20914339,5.78438243 9.08864254,5.49181073 C8.85554188,4.92573647 8.91274932,4.52455812 8.98449894,4.28991992 C8.78701678,4.3625023 8.58515697,4.47544382 8.37279107,4.63143509 L8.35955156,4.64121524 C8.25344334,4.71988352 8.14534919,4.80890852 8.02894832,4.9129454 C7.34403882,5.52619073 6.83090124,5.84590342 6.50309536,5.86328561 L6.4940626,5.86373405 L6.48507256,5.8629653 C6.19628051,5.83845086 5.75862946,5.41807522 5.57959718,5.20523951 C5.54237709,5.18027663 5.49996797,5.16895899 5.44399903,5.16895899 C5.38779519,5.16895899 5.32477943,5.18076777 5.26381364,5.19234167 C5.2194613,5.20075515 5.17374229,5.20931813 5.12840767,5.21390924 C4.98390488,5.22840864 4.78136181,5.27513128 4.58588692,5.32012424 C4.49165154,5.34177724 4.39440524,5.36417763 4.30550838,5.38252074 C4.3038214,5.38279835 4.26566173,5.39067799 4.19745692,5.40865809 C3.71434312,5.55158068 3.35027809,5.71555836 3.17220675,5.87050328 C3.17026353,5.87219025 3.1645193,5.87665324 3.15535841,5.88337976 C3.03492162,5.96898811 2.74538219,6.21323563 2.65802281,6.62878525 L2.65710459,6.6322446 C2.47471973,7.39750934 2.75123319,8.34654696 3.11867217,8.88864062 C3.29149042,9.14343701 3.477719,9.30239648 3.6299733,9.3246901 C3.66787673,9.3300713 3.71336083,9.33293282 3.7649522,9.33293282 Z"></path>
                    <path d="M6.46448726,5.27434118 C6.47621063,5.27664741 6.48991992,5.27780053 6.50505994,5.27780053 C6.82077943,5.27780053 7.52586848,4.82065324 7.65629895,4.6114477 L7.66667702,4.59479155 L7.68149672,4.58174423 C7.72597719,4.53784033 7.8544431,4.30659743 7.91679689,4.16818054 C7.24815919,3.96758068 7.17438098,3.60556564 7.10916573,3.28390973 C7.10158505,3.24656152 7.09492259,3.2129289 7.08896482,3.18286241 C7.08134142,3.14352827 7.07335501,3.10357486 7.06650036,3.07269692 C6.0704198,3.40306528 5.76593254,3.5884824 5.5997554,3.72636545 C5.51376268,3.79779471 5.46313225,4.0009357 5.71111672,4.56320893 C5.83778889,4.84982286 6.27456442,5.23780441 6.46448726,5.27434118 Z"></path>
                    <path d="M1.25482747,12.022645 C1.13099539,11.8767115 1.0784858,11.6927891 1.09909245,11.4754691 C1.18675079,10.4206435 1.06652754,10.1658257 1.01085756,10.1053511 C0.997425872,10.0907236 0.990165491,10.0907236 0.984421257,10.0907236 C0.982264495,10.0907236 0.980257215,10.0908518 0.978100462,10.0910653 C0.874746908,10.1157719 0.178583839,10.5864363 0.024898811,11.9916816 C-0.0492210628,12.6698432 0.0806542102,13.5407464 0.191332201,14.0704547 C0.280271779,13.7577035 0.420717301,13.4131987 0.692789129,13.0586149 C0.946090758,12.7288231 1.22239068,12.4687522 1.56514438,12.2407979 C1.45858772,12.1964882 1.34421548,12.1281767 1.25482747,12.022645 Z"></path>
                    <path d="M8.62763017,0.00301091968 C8.54443488,0.551831109 8.40898616,1.07316865 8.15619704,1.62341956 C8.43174957,1.31145838 8.59278039,0.972527058 8.64672067,0.592104829 C8.6691638,0.434512012 8.69038974,0.283773841 8.62763017,0.00301091968 Z"></path>
                    <path d="M7.09171949,2.55814996 C7.58574521,2.11153021 7.88651686,1.37396166 8.01160883,0.935862172 C7.58134627,1.35028003 7.05844989,1.57263965 6.72287115,1.71554089 C6.60730308,1.76482601 6.50762242,1.80725649 6.44787382,1.84208493 C6.42271875,1.85671245 6.39732881,1.87142538 6.37161854,1.88626644 C6.16805048,2.00403398 5.86074448,2.1820199 5.8159437,2.29171561 L5.81466246,2.29528173 L5.81299684,2.29880515 C5.67357632,2.59178257 5.5950148,3.03235914 5.56983839,3.28502014 C5.89303179,3.0876661 6.22621888,2.95595438 6.5029886,2.84664305 C6.7598777,2.74514729 6.98200242,2.65738219 7.09171949,2.55814996 Z"></path>
                    <path d="M7.59005872,2.94423101 C7.5870478,2.95185441 7.58382335,2.95907207 7.58034263,2.96594807 C7.4984926,3.20389614 7.61122057,3.52755933 7.82008444,3.64964038 C7.87564766,3.68214123 7.92967338,3.70200048 7.98149964,3.70883378 C7.98863189,3.70913273 7.99572143,3.70941034 8.00287503,3.70941034 C8.16518709,3.70941034 8.29758214,3.59068187 8.39578937,3.35666295 C8.45763067,3.17857025 8.46642855,2.96737879 8.41981267,2.77672992 C8.38359622,2.6286183 8.28989468,2.4518282 8.23018879,2.36367872 C8.11874205,2.44016889 7.89849648,2.60843873 7.74726717,2.7419869 C7.64165009,2.84399514 7.60349042,2.9082281 7.59005872,2.94423101 Z"></path>
                    <path d="M8.98674108,8.99225038 C9.16617908,8.94334963 9.30867461,8.90331082 9.41377918,8.87217667 C9.19731332,8.72139578 8.94674499,8.53380051 8.60610528,8.26886096 C7.77124775,7.61961272 6.87602232,7.29029071 5.9456695,7.29029071 C5.43614074,7.29029071 4.99227567,7.38834846 4.64098034,7.50705557 C4.72855326,7.50161029 4.81759961,7.4990051 4.90905896,7.4990051 C5.01770833,7.4990051 5.13156806,7.50282747 5.24734967,7.51055763 C5.6092793,7.53481582 6.54174617,7.69943412 7.38501723,8.7049105 C7.55490997,8.90711191 7.73750838,9.07448486 8.25685999,9.07448486 C8.4421917,9.07448486 8.65823056,9.05383549 8.91697747,9.01129824 C8.93297164,9.0068352 8.95716572,9.00023681 8.98674108,8.99225038 Z"></path>
                    <path d="M10.1702461,4.61138364 C10.0046455,4.35421693 9.79659306,4.19446736 9.62763992,4.19446736 C9.59637758,4.19446736 9.56652459,4.1999767 9.53893524,4.21080321 C9.44841539,4.24650716 9.30506576,4.66013492 9.36855133,4.96088522 C9.41175053,5.16549964 9.66046104,5.85690075 9.77987281,6.18916962 C9.82561318,6.31639699 9.84777868,6.3785586 9.85518854,6.40166367 C9.86106093,6.41987867 9.86949573,6.44601602 9.88017275,6.47898666 C9.97662896,6.77292502 10.2242077,7.52843096 10.2979005,8.14018151 C10.4511157,7.48773017 10.5378985,6.70177335 10.503903,5.76114923 C10.488464,5.32981897 10.3699277,4.92144431 10.1702461,4.61138364 Z"></path>
                    <path d="M7.06989566,8.99622232 C7.06662849,8.99195144 7.06348944,8.9877447 7.06039311,8.98373012 C7.04728173,8.98586556 7.02588498,8.99054208 6.99238049,9.00030086 L6.97835089,9.00450768 C6.80728367,9.06750206 6.4934647,9.17337537 6.13072361,9.29577677 C5.69537879,9.44247903 5.202314,9.60880563 4.78951905,9.75691725 C4.26429507,9.95262705 4.09397524,10.0298432 4.0405688,10.0568988 C4.03087406,10.082908 4.02000486,10.1160922 4.00789711,10.152693 C3.88368066,10.5307663 3.59920213,11.3961388 2.19641252,12.0011415 C2.48614414,12.2946314 3.11679301,12.8214569 4.35829556,12.8214569 C4.46581315,12.8214569 4.57734531,12.8174423 4.68915506,12.8093705 C5.62651202,12.7427246 6.50762242,12.327965 7.17062266,11.6418811 C7.77351128,11.0181296 8.11573113,10.2401805 8.12102694,9.49024797 C7.97430333,9.47805481 7.72557146,9.44153946 7.4953322,9.33222806 C7.49266295,9.33092549 7.22953846,9.20406114 7.06989566,8.99622232 Z"></path>
                    <path d="M1.73189808,10.3590371 C1.72929289,10.5797098 1.70010192,10.7913496 1.67167969,10.9976724 C1.6563902,11.1090551 1.64041738,11.2243455 1.62867265,11.3402126 C1.61274253,11.5732706 1.66309536,11.6544799 1.68545304,11.6782256 C1.6976462,11.6916573 1.71776171,11.7069682 1.76096093,11.7069682 C1.79423053,11.7069682 1.83394904,11.6977433 1.87590973,11.6802543 C2.292463,11.5056637 2.68804659,11.2026285 2.87820432,11.034444 C2.5863373,10.9042912 2.13745402,10.6231652 1.73189808,10.3590371 Z"></path>
                    <path d="M8.61123027,9.48597718 C8.59944284,9.64096481 8.57413835,9.93332298 8.53369372,10.1560242 C8.48468627,10.4257045 8.40354089,10.6537869 8.35634846,10.7729212 C8.44059015,10.8508207 8.52457557,10.9272682 8.57904977,10.9755283 C8.79824897,10.8320718 9.51779468,10.2858568 10.0142121,9.04580634 C9.85518854,9.15321719 9.63184665,9.24773012 9.34230719,9.33049844 C9.04768548,9.41439848 8.76139186,9.46351272 8.61123027,9.48597718 Z"></path>
                </g>
            </g>
            <g id="Group" transform="translate(0.317308, 0.387820)">
                <path d="M13.1660898,6.75895948 C12.8658093,6.13125747 12.4471206,5.81434215 12.1579442,5.63056928 C11.914807,5.47611551 11.6352186,5.36387867 11.3248803,5.29580199 C11.2902441,5.07888765 11.2309866,4.85714729 11.1498199,4.64138607 C11.6731434,3.86130163 11.7991322,2.98420577 11.5130095,2.09570687 C11.293255,1.41259112 11.1226363,0.972121328 10.9758913,0.70923174 C10.6588692,0.140616355 10.2196166,0.0212899782 9.906908,0.0212899782 C9.58467552,0.0212899782 9.27615243,0.158212084 9.05985732,0.397334627 C8.83841589,0.642094637 8.73499829,0.962405239 8.76871634,1.29907304 C8.79752297,1.58619947 8.72220724,2.10779325 8.6722174,2.2940432 C8.67136329,2.29654162 8.58248778,2.54550838 7.92123853,2.8659898 C7.90530842,2.87171269 7.87144091,2.88330793 7.8193157,2.90077554 C7.43895754,3.02815239 6.73211745,3.26511818 6.26126086,3.88773793 C5.90150934,4.32350982 5.81314632,4.75533123 5.71105266,5.25516525 C5.65002281,5.55316088 5.58621693,5.94248774 5.60204028,6.40283815 C4.42009415,6.66530065 3.56858044,7.2001553 3.06925891,7.99456831 C2.55242708,8.8171259 2.46276147,9.83682404 2.80301674,11.0266925 L2.80600631,11.0355331 C2.81224169,11.0571861 2.81881873,11.0787537 2.82567338,11.1002359 C2.7676331,11.0902849 2.70897355,11.0819141 2.64875515,11.075273 C2.59603203,11.0692084 2.54166465,11.0663043 2.48774569,11.0663043 C1.89760544,11.0663043 1.26964717,11.4372453 0.80790876,12.0587119 C0.457125941,12.5305936 0.0358320796,13.3641058 0.0209696676,14.6552138 C0.00980150448,15.6141169 0.112343606,16.4981956 0.325969425,17.2829138 C0.48529192,17.8676088 0.663021597,18.2268051 0.731247756,18.3525378 L2.17890221,21.0661878 L2.8421587,18.0610124 C3.06851152,17.0374064 3.29200292,16.6028944 3.58038923,16.315704 C4.25143994,16.7201068 5.0440165,16.9328571 5.88536569,16.9328571 C6.82321379,16.9328571 7.80114341,16.6623654 8.63862755,16.1713293 C9.18266436,15.852001 9.64638874,15.4597273 10.0187178,15.0041602 C10.0237574,15.0041602 10.0287328,15.0041602 10.033751,15.0041602 L10.0734055,15.0033487 C10.3036447,14.9955545 10.6184033,14.8816947 10.9368348,14.6909391 C11.2020733,14.5322145 11.601949,14.240198 12.0033836,13.7499947 C12.4079359,13.2555419 12.7380053,12.6540199 12.9840893,11.9619995 C13.2723688,11.1518486 13.447835,10.2085125 13.5052133,9.15881196 C13.574678,8.18244116 13.4608396,7.3750449 13.1660898,6.75895948 Z M12.5014667,9.09566807 C12.4498966,10.0524358 12.2933715,10.9035011 12.0367173,11.6248619 C11.8293055,12.2078699 11.5562087,12.7083446 11.225157,13.113025 C10.6550895,13.8094016 10.0980267,13.9961214 10.0389187,13.9984703 L10.0342208,13.9984703 C9.98023781,13.9984703 9.94854842,13.9764329 9.79729774,13.8706023 C9.75503811,13.8411551 9.69118954,13.7965678 9.6385091,13.7622306 C9.32219166,14.3774617 8.80260522,14.9089638 8.12965397,15.3036719 C7.44423199,15.7056404 6.64700024,15.9272526 5.88534433,15.9272526 C4.98095802,15.9272526 4.1870148,15.6287445 3.58248192,15.0625635 C2.75776753,15.5869332 2.26209755,16.0244349 1.86023587,17.8444183 L1.78417277,18.1894356 L1.61788886,17.8778801 C1.57592817,17.8011764 1.43195924,17.5171463 1.29636108,17.0187857 C1.10724969,16.3239679 1.01640961,15.5325872 1.02651007,14.6668518 C1.04666829,12.9391177 1.9740529,12.0719514 2.48770299,12.0719514 C2.50461538,12.0719514 2.52139966,12.0727843 2.53741519,12.0746848 C3.02428731,12.129159 3.34244116,12.3395176 3.91998252,12.7215201 C3.97968843,12.7610891 4.04255472,12.8026654 4.10881631,12.8461849 C4.31573695,12.9819966 4.60822325,13.1478108 4.68185198,13.1620325 C4.82197719,13.1538966 4.95915555,12.840035 4.99902354,12.5488939 C5.0014579,12.5311915 5.00384955,12.5147702 5.00615579,12.4994593 C5.00929483,12.4650366 5.01100316,12.4347567 5.01192138,12.4099005 C4.98749236,12.4013803 4.9621024,12.3913439 4.9361786,12.3799408 L4.93041301,12.3779976 C4.56713807,12.252927 4.03636205,11.638614 3.76922301,10.7468692 C3.51124485,9.84551514 3.562281,9.10000292 3.92081533,8.52967923 C4.50209367,7.60445134 5.76381849,7.38691774 6.18111915,7.31546712 C6.31157098,7.28954332 6.44800194,7.26526377 6.58682456,7.24333317 C6.65163407,7.2270614 6.6959437,7.21345887 6.72453676,7.20109488 C6.7369221,7.1924892 6.74236739,7.18330697 6.73391119,7.14978112 L6.74522883,7.14662072 L6.73427421,7.14907644 C6.72921329,7.12633439 6.72220917,7.09972725 6.71418005,7.06893472 C6.7030546,7.02629071 6.69062655,6.97805193 6.67777141,6.9208231 C6.54857947,6.34125309 6.61452074,5.85559816 6.69619995,5.45681145 C6.78795826,5.00797088 6.83880223,4.75947392 7.05078379,4.51127591 C7.33163213,4.12470371 7.83667653,3.955537 8.13883621,3.85421209 C8.22314196,3.82598204 8.29598058,3.80163844 8.33809076,3.7813521 C9.26366024,3.33742296 9.55836742,2.87068769 9.64263046,2.55738122 C9.70940452,2.30877749 9.81525651,1.65510895 9.76928125,1.19862364 C9.76417758,1.14684009 9.77624264,1.10421743 9.80547632,1.07188741 C9.83142152,1.04325163 9.86829995,1.0269585 9.90686535,1.0269585 C9.99358411,1.0269585 10.1123553,1.0269585 10.555537,2.40382431 C10.7893424,3.12977627 10.615008,3.81037224 10.0378297,4.42690609 C10.0304198,4.43491386 10.0228818,4.44275079 10.0156214,4.45028877 C9.99986215,4.46651784 9.97615918,4.49105363 9.97293474,4.49995826 C9.97306285,4.49995826 9.97190971,4.52220917 10.0104111,4.5860364 C10.254381,4.98885901 10.3869468,5.48980345 10.3484882,5.86221791 C10.3393273,5.94895802 10.3227352,6.03243096 10.308364,6.10588886 C10.2998224,6.14791361 10.2895938,6.1993555 10.2843194,6.23915943 C10.2866896,6.23915943 10.2891454,6.23915943 10.2917292,6.23915943 C10.3576705,6.23217665 10.4597215,6.2242116 10.5827421,6.2242116 C10.8722174,6.2242116 11.2867634,6.26856394 11.618477,6.47941374 C11.8188207,6.60651298 12.0723572,6.80264984 12.2586925,7.19272409 C12.4782335,7.65123805 12.5596991,8.29145353 12.5014667,9.09566807 Z" id="Shape"></path>
            </g>
        </g>
    </g>
</svg>